<?xml version="1.0" encoding="utf-8"?>
<!-- Generator: Adobe Illustrator 15.0.0, SVG Export Plug-In  -->
<!DOCTYPE svg PUBLIC "-//W3C//DTD SVG 1.1//EN" "http://www.w3.org/Graphics/SVG/1.1/DTD/svg11.dtd" [
	<!ENTITY ns_flows "http://ns.adobe.com/Flows/1.0/">
]>
<svg version="1.1"
	 xmlns="http://www.w3.org/2000/svg" xmlns:xlink="http://www.w3.org/1999/xlink" xmlns:a="http://ns.adobe.com/AdobeSVGViewerExtensions/3.0/"
	 x="0px" y="0px" width="258px" height="71px" viewBox="-0.306 -0.686 258 71"
	 overflow="visible" enable-background="new -0.306 -0.686 258 71" xml:space="preserve">
<defs>
</defs>
<path fill="#2F4062" d="M79.255,2.818c0-0.97,0.875-1.847,1.848-1.847h6.418c0.972,0,1.848,0.877,1.848,1.847v64.375
	c0,0.974-0.876,1.85-1.848,1.85h-6.418c-0.973,0-1.848-0.876-1.848-1.85V2.818z"/>
<path fill="#2F4062" d="M112.903,1.75c0-0.973,0.875-1.75,1.847-1.75h0.778c0.972,0,1.653,0,2.917,1.458l40.844,47.355h0.193V2.818
	c0-0.97,0.776-1.847,1.848-1.847h6.223c0.974,0,1.85,0.877,1.85,1.847v65.448c0,0.971-0.876,1.75-1.85,1.75h-0.874
	c-0.973,0-1.652,0-2.818-1.363l-40.942-48.817h-0.193v47.358c0,0.974-0.778,1.85-1.848,1.85h-6.126c-0.972,0-1.847-0.876-1.847-1.85
	V1.75z"/>
<path fill="#2F4062" d="M222.179,0c19.445,0,35.005,15.658,35.005,35.104c0,19.45-15.56,34.913-35.005,34.913
	c-19.452,0-34.912-15.463-34.912-34.913C187.267,15.658,202.727,0,222.179,0z M222.179,60.583c13.903,0,25.282-11.571,25.282-25.479
	c0-13.81-11.379-25.672-25.282-25.672c-13.812,0-25.189,11.863-25.189,25.672C196.99,49.011,208.367,60.583,222.179,60.583z"/>
<path fill="#2F4062" d="M34.685,54.229c1.009-0.069,1.882-0.934,1.351-2.111l-2.395-5.193c-0.446-0.872-1.01-1.047-2.045-1.023
	H19.935l11.864-26.648h0.487l9.417,20.982h0.002l0.154,0.344l2.388,5.322h-0.008l7.069,15.796l2.664,5.888
	c0.388,0.875,1.07,1.459,2.236,1.459h6.126c1.458,0,2.236-1.265,1.653-2.53L34.327,1.068C34.036,0.485,33.161,0,32.674,0h-0.972
	c-0.486,0-1.361,0.485-1.655,1.068L0.195,66.513c-0.583,1.266,0.194,2.53,1.653,2.53h6.126c1.167,0,1.944-0.777,2.236-1.459
	l5.932-13.324L34.685,54.229z"/>
</svg>
